<?xml version="1.0" encoding="UTF-8" standalone="no"?>
<!DOCTYPE svg PUBLIC "-//W3C//DTD SVG 1.1//EN" "http://www.w3.org/Graphics/SVG/1.1/DTD/svg11.dtd">
<svg xmlns="http://www.w3.org/2000/svg" version="1.1" viewBox="0 0 128 128">
  <path fill="#3153d7" d="
  M 61.56 0.00
  L 66.81 0.00
  C 101.85 2.43 125.34 27.76 128.00 62.06
  L 128.00 66.06
  C 125.42 100.74 101.39 125.55 66.44 128.00
  L 61.44 128.00
  C 27.45 125.81 1.81 100.27 0.00 66.19
  L 0.00 61.69
  C 1.83 27.62 27.59 2.09 61.56 0.00
  Z
  M 117.30 63.99
  A 53.30 53.30 0.0 0 0 64.00 10.69
  A 53.30 53.30 0.0 0 0 10.70 63.99
  A 53.30 53.30 0.0 0 0 64.00 117.29
  A 53.30 53.30 0.0 0 0 117.30 63.99
  Z" />
  <path fill="#3153d7" d="
  M 56.06 42.69
  C 72.35 52.44 77.64 30.86 89.56 38.21
  C 101.99 45.87 89.13 65.43 76.29 53.56
  C 69.95 47.70 62.99 45.13 55.05 50.06
  C 52.34 51.73 49.92 54.73 46.55 55.54
  C 39.10 57.32 32.88 51.99 33.47 44.55
  C 34.02 37.61 42.23 33.33 48.35 36.50
  C 51.01 37.87 53.53 41.17 56.06 42.69
  Z" />
  <path fill="#61138f" d="
  M 107.56 55.69
  C 116.14 61.16 110.67 74.85 100.60 73.00
  C 97.49 72.44 95.06 69.89 92.44 67.89
  C 84.97 62.16 78.26 64.33 71.69 70.12
  C 68.78 72.69 65.92 73.49 62.20 72.98
  C 57.27 72.29 54.63 67.60 50.08 65.64
  C 44.00 63.03 38.32 65.21 33.60 69.40
  C 20.61 80.92 9.44 61.56 21.38 55.17
  C 29.16 51.01 31.65 57.44 37.35 60.45
  C 52.81 68.62 54.95 50.29 68.19 54.76
  C 71.19 55.77 73.32 58.79 76.07 60.40
  C 91.19 69.26 95.81 48.19 107.56 55.69
  Z" />
  <path fill="#3153d7" d="
  M 90.81 73.44
  C 101.28 82.70 88.08 98.65 76.20 87.78
  C 68.58 80.81 60.44 79.11 52.23 86.48
  Q 44.28 93.62 37.22 87.80
  C 27.51 79.78 37.90 65.00 48.92 71.06
  C 50.80 72.10 52.58 74.27 54.49 75.76
  C 71.27 88.86 78.97 62.95 90.81 73.44
  Z" />
</svg>